<?xml version="1.0" encoding="UTF-8" standalone="no"?>
<!DOCTYPE svg PUBLIC "-//W3C//DTD SVG 1.1//EN" "http://www.w3.org/Graphics/SVG/1.1/DTD/svg11.dtd">
<svg width="100%" height="100%" viewBox="0 0 1546 487" version="1.1" xmlns="http://www.w3.org/2000/svg" xmlns:xlink="http://www.w3.org/1999/xlink" xml:space="preserve" xmlns:serif="http://www.serif.com/" style="fill-rule:evenodd;clip-rule:evenodd;stroke-linejoin:round;stroke-miterlimit:2;">
    <g transform="matrix(1,0,0,1,-187.263609,-1409.234981)">
        <g transform="matrix(1,0,0,1,12.610076,1141.765019)">
            <g>
                <g transform="matrix(1.041246,0,0,0.772727,-66.328882,-14.227273)">
                    <rect x="231.436" y="813" width="1484.253" height="66" style="fill:rgb(229,184,48);"/>
                </g>
                <g transform="matrix(0.848022,0,0,0.848022,-10.04095,283.563433)">
                    <g transform="matrix(367.160191,0,0,367.160191,235.348728,555)">
                        <path d="M0.01,-0L0.261,-0.688L0.518,-0.688L0.769,-0L0.535,-0L0.506,-0.097L0.265,-0.097L0.236,-0L0.01,-0ZM0.311,-0.251L0.461,-0.251L0.428,-0.361C0.425,-0.369 0.422,-0.379 0.419,-0.39C0.416,-0.401 0.412,-0.413 0.409,-0.426C0.406,-0.439 0.402,-0.451 0.399,-0.464C0.396,-0.476 0.393,-0.487 0.39,-0.496L0.382,-0.496C0.379,-0.484 0.376,-0.47 0.371,-0.455C0.367,-0.44 0.363,-0.424 0.358,-0.408C0.353,-0.391 0.349,-0.376 0.344,-0.361L0.311,-0.251Z" style="fill-rule:nonzero;"/>
                    </g>
                    <g transform="matrix(367.160191,0,0,367.160191,520.999357,555)">
                        <path d="M0.074,-0L0.074,-0.688L0.262,-0.688L0.476,-0.441C0.482,-0.434 0.49,-0.425 0.5,-0.412C0.51,-0.399 0.52,-0.387 0.53,-0.373C0.541,-0.36 0.549,-0.35 0.554,-0.342L0.559,-0.344C0.558,-0.363 0.558,-0.381 0.558,-0.4L0.558,-0.688L0.759,-0.688L0.759,-0L0.572,-0L0.331,-0.275C0.32,-0.288 0.31,-0.3 0.302,-0.311C0.294,-0.323 0.286,-0.333 0.279,-0.343L0.274,-0.341C0.275,-0.328 0.275,-0.316 0.275,-0.303L0.275,-0L0.074,-0Z" style="fill-rule:nonzero;"/>
                    </g>
                    <g transform="matrix(367.160191,0,0,367.160191,826.843796,555)">
                        <path d="M0.28,-0L0.28,-0.267L0.007,-0.688L0.261,-0.688L0.393,-0.459L0.397,-0.459L0.529,-0.688L0.77,-0.688L0.501,-0.267L0.501,-0L0.28,-0Z" style="fill-rule:nonzero;"/>
                    </g>
                    <g transform="matrix(367.160191,0,0,367.160191,1105.15122,555)">
                        <path d="M0.166,-0L0.005,-0.688L0.235,-0.688L0.295,-0.394C0.296,-0.389 0.298,-0.381 0.3,-0.369C0.302,-0.358 0.304,-0.346 0.307,-0.334C0.31,-0.321 0.312,-0.309 0.314,-0.298L0.318,-0.298C0.319,-0.304 0.321,-0.311 0.323,-0.32C0.324,-0.328 0.326,-0.336 0.328,-0.345C0.329,-0.354 0.336,-0.387 0.337,-0.394L0.396,-0.688L0.614,-0.688L0.677,-0.394C0.678,-0.387 0.68,-0.378 0.682,-0.367C0.685,-0.356 0.687,-0.344 0.69,-0.332C0.693,-0.319 0.695,-0.308 0.697,-0.298L0.701,-0.298C0.702,-0.305 0.704,-0.312 0.706,-0.321C0.707,-0.329 0.713,-0.363 0.715,-0.371C0.716,-0.38 0.718,-0.387 0.719,-0.394L0.775,-0.688L0.995,-0.688L0.834,-0L0.591,-0L0.523,-0.322C0.522,-0.331 0.52,-0.341 0.517,-0.352C0.514,-0.364 0.504,-0.41 0.502,-0.419L0.498,-0.419C0.496,-0.411 0.494,-0.401 0.491,-0.39C0.489,-0.378 0.479,-0.332 0.477,-0.322L0.409,-0L0.166,-0Z" style="fill-rule:nonzero;"/>
                    </g>
                    <g transform="matrix(367.160191,0,0,367.160191,1453.953401,555)">
                        <path d="M0.01,-0L0.261,-0.688L0.518,-0.688L0.769,-0L0.535,-0L0.506,-0.097L0.265,-0.097L0.236,-0L0.01,-0ZM0.311,-0.251L0.461,-0.251L0.428,-0.361C0.425,-0.369 0.422,-0.379 0.419,-0.39C0.416,-0.401 0.412,-0.413 0.409,-0.426C0.406,-0.439 0.402,-0.451 0.399,-0.464C0.396,-0.476 0.393,-0.487 0.39,-0.496L0.382,-0.496C0.379,-0.484 0.376,-0.47 0.371,-0.455C0.367,-0.44 0.363,-0.424 0.358,-0.408C0.353,-0.391 0.349,-0.376 0.344,-0.361L0.311,-0.251Z" style="fill-rule:nonzero;"/>
                    </g>
                    <g transform="matrix(367.160191,0,0,367.160191,1706.559613,555)">
                        <path d="M0.28,-0L0.28,-0.267L0.007,-0.688L0.261,-0.688L0.393,-0.459L0.397,-0.459L0.529,-0.688L0.77,-0.688L0.501,-0.267L0.501,-0L0.28,-0Z" style="fill-rule:nonzero;"/>
                    </g>
                    <g transform="matrix(367.160191,0,0,367.160191,1918.778203,555)">
                        <rect x="0.061" y="-0.199" width="0.212" height="0.199" style="fill-rule:nonzero;"/>
                    </g>
                    <g transform="matrix(367.160191,0,0,367.160191,2041.042547,555)">
                    </g>
                </g>
            </g>
            <g transform="matrix(0.848022,0,0,0.848022,-20.315827,14.769714)">
                <g transform="matrix(367.160191,0,0,367.160191,512.371092,555)">
                    <path d="M0.383,0.012C0.336,0.012 0.292,0.009 0.251,0.002C0.21,-0.006 0.173,-0.018 0.143,-0.035C0.112,-0.051 0.087,-0.075 0.07,-0.105C0.052,-0.136 0.043,-0.174 0.043,-0.22L0.043,-0.226C0.043,-0.228 0.043,-0.23 0.044,-0.233L0.253,-0.233C0.252,-0.23 0.252,-0.228 0.252,-0.226L0.252,-0.219C0.252,-0.199 0.257,-0.184 0.266,-0.173C0.275,-0.162 0.289,-0.155 0.305,-0.151C0.323,-0.148 0.342,-0.146 0.363,-0.146C0.371,-0.146 0.38,-0.146 0.389,-0.146C0.398,-0.147 0.406,-0.148 0.415,-0.149C0.423,-0.151 0.431,-0.154 0.438,-0.157C0.444,-0.16 0.45,-0.165 0.454,-0.171C0.458,-0.176 0.46,-0.183 0.46,-0.192C0.46,-0.205 0.454,-0.215 0.443,-0.222C0.432,-0.229 0.416,-0.236 0.397,-0.241C0.378,-0.246 0.356,-0.251 0.332,-0.256C0.308,-0.261 0.283,-0.266 0.257,-0.273C0.231,-0.279 0.206,-0.287 0.182,-0.297C0.158,-0.307 0.136,-0.32 0.117,-0.336C0.098,-0.351 0.082,-0.371 0.071,-0.395C0.06,-0.418 0.054,-0.447 0.054,-0.48C0.054,-0.52 0.062,-0.554 0.079,-0.582C0.096,-0.61 0.119,-0.633 0.147,-0.65C0.176,-0.667 0.21,-0.68 0.246,-0.688C0.284,-0.696 0.322,-0.7 0.363,-0.7C0.404,-0.7 0.443,-0.696 0.48,-0.688C0.516,-0.679 0.548,-0.666 0.576,-0.649C0.604,-0.632 0.626,-0.61 0.642,-0.583C0.658,-0.556 0.666,-0.525 0.667,-0.488L0.667,-0.476L0.46,-0.476L0.46,-0.48C0.46,-0.492 0.457,-0.503 0.451,-0.514C0.445,-0.525 0.435,-0.533 0.422,-0.54C0.409,-0.547 0.392,-0.55 0.371,-0.55C0.351,-0.55 0.334,-0.548 0.321,-0.544C0.307,-0.54 0.297,-0.534 0.29,-0.527C0.283,-0.521 0.28,-0.513 0.28,-0.505C0.28,-0.492 0.286,-0.482 0.297,-0.474C0.308,-0.466 0.324,-0.459 0.343,-0.454C0.362,-0.449 0.384,-0.444 0.408,-0.439C0.432,-0.434 0.457,-0.429 0.483,-0.423C0.509,-0.418 0.534,-0.41 0.558,-0.401C0.582,-0.392 0.604,-0.38 0.623,-0.364C0.642,-0.349 0.658,-0.331 0.669,-0.309C0.68,-0.287 0.686,-0.26 0.686,-0.228C0.686,-0.171 0.673,-0.125 0.646,-0.09C0.62,-0.055 0.584,-0.029 0.538,-0.013C0.493,0.004 0.441,0.012 0.383,0.012Z" style="fill-rule:nonzero;"/>
                </g>
                <g transform="matrix(367.160191,0,0,367.160191,777.46075,555)">
                    <path d="M0.01,-0L0.261,-0.688L0.518,-0.688L0.769,-0L0.535,-0L0.506,-0.097L0.265,-0.097L0.236,-0L0.01,-0ZM0.311,-0.251L0.461,-0.251L0.428,-0.361C0.425,-0.369 0.422,-0.379 0.419,-0.39C0.416,-0.401 0.412,-0.413 0.409,-0.426C0.406,-0.439 0.402,-0.451 0.399,-0.464C0.396,-0.476 0.393,-0.487 0.39,-0.496L0.382,-0.496C0.379,-0.484 0.376,-0.47 0.371,-0.455C0.367,-0.44 0.363,-0.424 0.358,-0.408C0.353,-0.391 0.349,-0.376 0.344,-0.361L0.311,-0.251Z" style="fill-rule:nonzero;"/>
                </g>
                <g transform="matrix(367.160191,0,0,367.160191,1030.066961,555)">
                    <path d="M0.28,-0L0.28,-0.267L0.007,-0.688L0.261,-0.688L0.393,-0.459L0.397,-0.459L0.529,-0.688L0.77,-0.688L0.501,-0.267L0.501,-0L0.28,-0Z" style="fill-rule:nonzero;"/>
                </g>
                <g transform="matrix(367.160191,0,0,367.160191,1297.35958,555)">
                </g>
                <g transform="matrix(367.160191,0,0,367.160191,1363.448414,555)">
                    <rect x="0.074" y="-0.688" width="0.221" height="0.688" style="fill-rule:nonzero;"/>
                </g>
                <g transform="matrix(367.160191,0,0,367.160191,1498.930525,555)">
                    <path d="M0.249,-0L0.249,-0.512L0.023,-0.512L0.023,-0.688L0.695,-0.688L0.695,-0.512L0.47,-0.512L0.47,-0L0.249,-0Z" style="fill-rule:nonzero;"/>
                </g>
                <g transform="matrix(367.160191,0,0,367.160191,1764.020183,555)">
                </g>
            </g>
        </g>
    </g>
</svg>
